<svg xmlns="http://www.w3.org/2000/svg" viewBox="0 0 653.90 164"><g fill="#FFFFFF"><path fill-rule="evenodd" d="M60.32 159.22 C60.28 158.93 60.19 157.65 60.13 156.38 C59.98 153.73 59.70 150.80 59.44 149.25 C59.23 148.04 59.04 145.92 58.94 143.56 C58.86 141.85 58.75 140.78 58.37 138.31 C58.24 137.49 58.11 136.31 58.06 135.69 C57.89 133.26 57.73 131.88 57.44 130.44 C57.28 129.61 57.08 128.15 57.00 127.19 C56.92 126.22 56.69 124.71 56.50 123.81 C56.30 122.92 56.08 121.60 56.00 120.88 C55.88 119.66 55.76 119.01 55.32 117.25 C55.22 116.87 55.08 115.98 55.00 115.26 C54.92 114.55 54.73 113.51 54.57 112.95 C54.17 111.56 54.15 111.45 54.01 110.25 C53.95 109.66 53.78 108.93 53.65 108.62 C53.51 108.32 53.31 107.50 53.19 106.81 C52.92 105.28 52.73 104.53 52.39 103.59 C52.24 103.19 52.06 102.40 51.98 101.84 C51.91 101.27 51.69 100.39 51.49 99.88 C51.30 99.36 51.08 98.58 51.00 98.14 C50.92 97.71 50.70 96.91 50.50 96.38 C50.30 95.84 50.06 95.01 49.96 94.54 C49.87 94.07 49.65 93.41 49.47 93.06 C49.30 92.72 49.13 92.14 49.09 91.79 C49.05 91.43 48.81 90.67 48.57 90.10 C48.33 89.53 48.04 88.67 47.93 88.19 C47.82 87.71 47.60 87.09 47.44 86.81 C47.29 86.54 47.09 86.02 47.02 85.65 C46.94 85.29 46.74 84.73 46.58 84.40 C46.41 84.08 46.16 83.37 46.01 82.83 C45.86 82.28 45.63 81.69 45.51 81.51 C45.38 81.33 45.16 80.84 45.02 80.42 C44.88 80.01 44.60 79.31 44.39 78.87 C44.19 78.42 43.99 77.94 43.95 77.80 C43.90 77.65 43.75 77.43 43.61 77.30 C43.36 77.07 42.92 77.06 32.46 77.03 C19.88 76.99 21.04 76.87 20.39 78.28 C19.45 80.30 19.00 81.34 18.93 81.69 C18.88 81.89 18.68 82.36 18.47 82.72 C18.27 83.09 18.02 83.73 17.92 84.14 C17.83 84.56 17.60 85.14 17.43 85.45 C17.17 85.89 17.08 86.26 16.98 87.34 C16.83 89.03 16.92 89.73 17.39 90.71 C17.67 91.31 17.94 91.62 18.54 92.10 C19.76 93.06 19.71 93.04 22.62 93.25 L24.31 93.37 L24.72 93.81 C25.20 94.33 25.25 94.87 24.87 95.26 C24.61 95.51 24.54 95.51 14.96 95.49 C9.65 95.48 5.21 95.52 5.09 95.56 C4.54 95.79 4.00 95.29 4.00 94.57 C4.00 93.91 5.05 93.10 6.08 92.97 C6.57 92.91 7.76 92.28 8.80 91.54 C9.32 91.16 10.63 89.60 10.96 88.96 C11.07 88.74 11.32 88.38 11.51 88.16 C11.71 87.94 11.93 87.51 12.01 87.22 C12.08 86.93 12.28 86.55 12.43 86.38 C12.72 86.06 13.88 83.93 13.87 83.71 C13.87 83.65 14.13 83.06 14.45 82.39 C14.76 81.73 15.24 80.74 15.50 80.19 C15.76 79.64 16.02 79.05 16.06 78.88 C16.11 78.70 16.31 78.25 16.51 77.88 C16.71 77.50 16.99 76.85 17.12 76.45 C17.26 76.04 17.46 75.62 17.55 75.51 C17.65 75.40 17.85 75.00 18.00 74.62 C18.15 74.25 18.35 73.81 18.44 73.66 C18.54 73.51 18.76 73.03 18.92 72.60 C19.09 72.17 19.40 71.47 19.61 71.06 C19.82 70.65 20.00 70.23 20.00 70.14 C20.00 70.05 20.19 69.60 20.43 69.14 C21.10 67.84 21.88 66.12 21.88 65.93 C21.88 65.84 22.07 65.40 22.30 64.94 C22.54 64.49 22.85 63.83 22.98 63.47 C23.12 63.11 23.40 62.50 23.61 62.12 C23.82 61.75 24.00 61.35 24.00 61.24 C24.00 61.13 24.18 60.70 24.39 60.30 C24.61 59.90 24.88 59.28 25.00 58.93 C25.12 58.57 25.36 58.07 25.53 57.80 C25.69 57.53 25.91 57.04 26.00 56.71 C26.09 56.38 26.32 55.90 26.51 55.63 C26.70 55.36 26.96 54.82 27.07 54.43 C27.18 54.04 27.41 53.53 27.57 53.30 C27.73 53.06 27.90 52.69 27.94 52.47 C27.99 52.25 28.24 51.64 28.50 51.13 C28.76 50.61 29.01 50.05 29.06 49.88 C29.12 49.70 29.29 49.33 29.45 49.05 C29.62 48.77 29.86 48.21 30.00 47.81 C30.14 47.41 30.37 46.88 30.52 46.63 C30.66 46.39 30.89 45.89 31.01 45.53 C31.14 45.16 31.35 44.71 31.48 44.53 C31.61 44.34 31.82 43.88 31.94 43.50 C32.06 43.12 32.32 42.53 32.51 42.19 C32.69 41.84 32.92 41.34 33.00 41.07 C33.09 40.80 33.31 40.32 33.50 40.00 C33.69 39.68 33.91 39.20 34.00 38.93 C34.08 38.66 34.29 38.18 34.46 37.88 C34.64 37.57 34.88 37.02 35.01 36.65 C35.14 36.29 35.35 35.84 35.48 35.65 C35.61 35.47 35.81 35.00 35.93 34.62 C36.06 34.25 36.31 33.68 36.50 33.38 C36.70 33.07 36.94 32.51 37.05 32.14 C37.25 31.46 37.87 30.25 38.22 29.84 C38.33 29.72 38.51 29.62 38.63 29.62 C38.96 29.63 39.73 30.71 39.99 31.55 C40.12 31.97 40.37 32.57 40.54 32.88 C40.72 33.18 41.00 33.83 41.18 34.30 C41.36 34.78 41.56 35.23 41.63 35.32 C41.70 35.40 41.86 35.78 42.00 36.18 C42.13 36.57 42.35 37.03 42.49 37.20 C42.63 37.38 42.83 37.82 42.93 38.19 C43.04 38.57 43.33 39.25 43.56 39.72 C43.80 40.18 44.00 40.64 44.00 40.72 C44.00 40.81 44.22 41.30 44.50 41.80 C44.77 42.30 45.00 42.79 45.00 42.90 C45.00 43.01 45.19 43.48 45.42 43.95 C45.65 44.43 45.94 45.09 46.06 45.44 C46.19 45.78 46.41 46.29 46.57 46.56 C46.72 46.84 46.92 47.29 47.01 47.56 C47.09 47.84 47.38 48.47 47.64 48.97 C47.91 49.48 48.12 49.97 48.12 50.07 C48.12 50.18 48.32 50.64 48.56 51.11 C48.80 51.57 49.00 52.04 49.00 52.14 C49.00 52.24 49.18 52.63 49.41 53.01 C49.63 53.38 49.89 53.94 49.98 54.25 C50.07 54.56 50.27 55.04 50.43 55.31 C50.59 55.59 50.82 56.09 50.95 56.44 C51.07 56.78 51.36 57.42 51.59 57.85 C51.82 58.29 52.00 58.73 52.00 58.83 C52.00 58.93 52.18 59.36 52.39 59.78 C52.61 60.21 52.89 60.87 53.02 61.24 C53.15 61.61 53.38 62.15 53.55 62.43 C53.71 62.71 53.91 63.16 54.00 63.44 C54.09 63.71 54.38 64.35 54.64 64.85 C54.91 65.35 55.12 65.85 55.12 65.96 C55.12 66.06 55.32 66.52 55.55 66.98 C55.78 67.44 56.01 67.98 56.06 68.19 C56.10 68.39 56.28 68.78 56.46 69.05 C56.63 69.31 56.88 69.84 57.01 70.23 C57.14 70.61 57.36 71.10 57.48 71.31 C57.61 71.53 57.79 71.93 57.87 72.20 C57.95 72.47 58.21 73.08 58.44 73.56 C58.67 74.04 59.19 75.14 59.58 76.00 L60.31 77.56 L60.40 94.69 C60.45 104.11 60.56 120.31 60.64 130.69 C60.87 159.18 60.86 159.75 60.50 159.75 C60.44 159.75 60.36 159.51 60.32 159.22Z M111.92 129.89 C111.63 129.76 111.29 129.49 111.17 129.29 C110.85 128.79 109.82 127.46 109.00 126.49 C108.62 126.03 108.00 125.28 107.62 124.81 C107.25 124.34 106.74 123.72 106.50 123.42 C106.26 123.13 105.84 122.59 105.56 122.24 C105.29 121.88 104.83 121.33 104.55 121.01 C104.28 120.70 103.94 120.29 103.80 120.11 C103.11 119.17 101.87 117.64 100.37 115.86 C99.72 115.08 99.07 114.29 98.93 114.11 C98.80 113.93 98.21 113.20 97.62 112.50 C97.04 111.79 96.21 110.76 95.77 110.20 C95.34 109.64 94.80 108.99 94.57 108.75 C94.35 108.51 94.04 108.10 93.88 107.84 C93.73 107.59 93.56 107.38 93.51 107.38 C93.46 107.38 93.16 107.02 92.85 106.59 C92.53 106.16 92.00 105.49 91.67 105.10 C90.26 103.46 87.99 100.67 84.72 96.58 C84.01 95.70 83.58 95.17 81.67 92.90 C81.13 92.26 80.43 91.41 80.12 91.01 C79.82 90.61 78.98 89.56 78.28 88.67 C77.57 87.79 76.72 86.73 76.40 86.32 C76.08 85.91 75.47 85.18 75.06 84.69 C73.86 83.28 73.34 82.64 72.88 82.00 C72.63 81.67 71.97 80.85 71.40 80.17 C70.84 79.49 70.18 78.71 69.95 78.43 C69.35 77.72 68.53 77.17 68.34 77.36 C68.24 77.46 68.21 78.22 68.23 80.03 C68.25 81.42 68.27 90.80 68.29 100.88 L68.31 119.19 L68.66 120.56 C68.86 121.32 69.08 122.18 69.15 122.47 C69.38 123.39 70.58 124.76 71.76 125.46 C72.69 126.02 74.50 126.62 75.22 126.63 C76.07 126.63 77.39 126.86 77.70 127.06 C77.85 127.16 77.99 127.37 78.03 127.54 C78.11 127.95 77.83 128.59 77.54 128.66 C77.42 128.70 74.63 128.73 71.35 128.73 L65.39 128.75 L65.04 128.45 L64.69 128.15 L64.67 102.48 C64.62 45.85 64.59 31.24 64.49 18.19 C64.39 4.00 64.45 2.21 64.87 6.31 C64.93 6.86 65.15 7.82 65.35 8.44 C65.73 9.59 65.93 10.87 66.07 13.06 C66.11 13.75 66.25 14.85 66.39 15.50 C66.82 17.56 66.86 17.79 66.99 19.19 C67.07 19.95 67.21 20.90 67.31 21.31 C67.71 23.04 67.88 23.87 68.01 24.88 C68.08 25.46 68.27 26.39 68.43 26.94 C68.71 27.89 68.89 28.81 69.07 30.17 C69.11 30.50 69.30 31.26 69.50 31.86 C69.69 32.45 69.89 33.25 69.93 33.62 C70.03 34.39 70.41 35.93 70.70 36.67 C70.80 36.94 70.94 37.57 71.00 38.07 C71.06 38.57 71.26 39.34 71.44 39.77 C71.62 40.21 71.87 41.07 71.99 41.70 C72.12 42.32 72.34 43.08 72.47 43.38 C72.61 43.69 72.84 44.44 72.99 45.06 C73.14 45.68 73.40 46.51 73.57 46.90 C73.74 47.29 73.94 47.93 74.01 48.33 C74.09 48.73 74.31 49.37 74.51 49.76 C74.70 50.16 74.96 50.89 75.07 51.39 C75.19 51.90 75.41 52.57 75.56 52.88 C75.72 53.18 75.94 53.77 76.06 54.19 C76.17 54.60 76.38 55.12 76.51 55.34 C76.63 55.57 76.88 56.13 77.05 56.59 C77.52 57.89 78.78 60.83 79.50 62.31 C80.88 65.16 81.47 66.33 82.06 67.38 C82.43 68.03 82.84 68.79 82.98 69.06 C83.45 69.97 86.06 73.93 86.67 74.64 C86.89 74.90 87.26 75.37 87.50 75.71 C87.93 76.30 88.44 76.94 89.44 78.12 C89.71 78.45 90.44 79.38 91.06 80.19 C91.68 80.99 92.41 81.93 92.69 82.26 C92.96 82.59 93.38 83.12 93.62 83.45 C93.87 83.77 94.26 84.27 94.51 84.55 C94.76 84.83 95.28 85.50 95.68 86.04 C96.07 86.58 96.63 87.28 96.92 87.61 C97.43 88.19 98.01 88.92 99.38 90.69 C99.75 91.18 100.27 91.83 100.53 92.13 C100.79 92.44 101.22 92.97 101.49 93.31 C101.77 93.66 102.19 94.19 102.44 94.50 C103.50 95.82 105.03 97.78 105.94 98.95 C106.14 99.22 106.65 99.85 107.06 100.36 C107.92 101.41 108.55 102.22 109.01 102.86 C109.38 103.39 109.68 103.49 109.87 103.13 C110.04 102.81 110.05 74.31 109.88 72.80 C109.82 72.24 109.63 71.43 109.46 70.99 C109.29 70.55 109.09 69.96 109.02 69.69 C108.92 69.34 108.59 68.89 107.91 68.18 C106.98 67.22 106.88 67.15 105.60 66.65 C104.41 66.18 104.14 66.12 103.22 66.12 C101.98 66.12 101.32 65.96 101.07 65.59 C100.81 65.22 100.83 64.71 101.11 64.36 L101.35 64.06 L111.40 64.05 C122.60 64.03 122.00 63.98 122.00 64.87 C122.00 65.74 121.68 65.96 119.88 66.31 C117.65 66.74 116.85 67.04 115.95 67.80 C115.34 68.31 115.08 68.65 114.66 69.50 C114.37 70.08 114.07 70.84 114.01 71.19 C113.68 72.86 113.62 77.69 113.63 103.23 C113.63 125.23 113.60 129.70 113.46 129.84 C113.17 130.13 112.48 130.15 111.92 129.89Z M41.47 73.35 C41.81 73.07 41.67 72.57 40.60 70.25 C40.45 69.94 40.18 69.29 39.99 68.81 C39.81 68.33 39.36 67.29 39.00 66.50 C38.64 65.71 38.21 64.71 38.05 64.28 C37.89 63.85 37.59 63.18 37.40 62.78 C37.20 62.39 37.00 61.90 36.95 61.71 C36.90 61.51 36.73 61.15 36.57 60.90 C36.40 60.64 36.15 60.08 36.00 59.64 C35.86 59.21 35.66 58.72 35.56 58.57 C35.46 58.42 35.27 57.98 35.14 57.59 C35.00 57.20 34.75 56.64 34.57 56.34 C34.40 56.05 34.11 55.36 33.93 54.81 C33.75 54.27 33.56 53.76 33.50 53.69 C33.44 53.62 33.27 53.24 33.13 52.85 C32.79 51.95 32.58 51.76 32.25 52.06 C32.12 52.18 31.94 52.48 31.86 52.73 C31.78 52.98 31.64 53.30 31.55 53.44 C31.46 53.58 31.25 54.07 31.07 54.54 C30.90 55.01 30.64 55.54 30.50 55.71 C30.36 55.89 30.16 56.32 30.06 56.67 C29.96 57.02 29.67 57.73 29.42 58.24 C28.35 60.45 28.01 61.22 27.87 61.69 C27.78 61.96 27.61 62.33 27.49 62.51 C27.36 62.69 27.14 63.14 27.00 63.51 C26.85 63.88 26.57 64.53 26.37 64.96 C26.16 65.38 26.00 65.79 26.00 65.86 C26.00 65.94 25.77 66.45 25.50 67.00 C25.23 67.55 25.00 68.06 25.00 68.15 C25.00 68.24 24.81 68.62 24.58 69.00 C24.35 69.38 24.12 69.89 24.08 70.14 C24.03 70.38 23.79 70.92 23.55 71.32 C23.00 72.23 22.87 72.99 23.20 73.33 C23.43 73.55 23.79 73.56 32.37 73.52 C38.37 73.49 41.36 73.44 41.47 73.35Z"/><path d="M175.76 44.418571428571425 193.9257142857143 85.27571428571429Q194.86857142857144 87.16142857142857 196.31428571428572 87.97857142857143Q197.82285714285715 88.92142857142856 199.26857142857142 88.92142857142856H199.77142857142857V89.55H181.73142857142858V88.92142857142856H182.29714285714286Q183.49142857142857 88.92142857142856 184.43428571428572 87.85285714285715Q185.31428571428572 86.91 184.74857142857144 85.14999999999999L181.29142857142858 76.22428571428571H165.7657142857143L162.24571428571429 84.96142857142857Q161.74285714285716 86.21857142857142 162.05714285714288 87.09857142857143Q162.37142857142857 87.97857142857143 163.12571428571428 88.44999999999999Q163.88 88.92142857142856 164.6342857142857 88.92142857142856H165.20000000000002V89.55H152.0V88.92142857142856H152.56571428571428Q154.01142857142858 88.92142857142856 155.58285714285714 87.97857142857143Q156.90285714285716 87.22428571428571 157.84571428571428 85.46428571428571L172.3657142857143 52.08714285714285Q172.49142857142857 51.83571428571428 172.9 50.86142857142856Q173.30857142857144 49.88714285714285 173.84285714285716 48.629999999999995Q174.37714285714287 47.372857142857136 174.75428571428574 46.209999999999994Q175.1314285714286 45.04714285714285 175.1942857142857 44.418571428571425ZM173.68571428571428 56.801428571428566 166.77142857142857 73.83571428571429H180.34857142857143ZM204.42285714285714 84.96142857142857V50.138571428571424Q204.35999999999999 48.50428571428571 203.19714285714286 47.341428571428565Q202.03428571428572 46.17857142857142 200.4 46.17857142857142H199.58285714285714V45.55H219.6342857142857Q222.46285714285713 45.55 225.00857142857143 46.24142857142857Q227.55428571428573 46.93285714285714 229.50285714285715 48.37857142857142Q231.45142857142858 49.82428571428571 232.55142857142857 52.05571428571428Q233.65142857142857 54.287142857142854 233.65142857142857 57.36714285714285Q233.65142857142857 60.132857142857134 232.45714285714286 62.83571428571428Q231.26285714285714 65.53857142857143 228.93714285714287 67.33Q226.61142857142858 69.12142857142857 223.21714285714285 69.37285714285714Q224.9142857142857 69.93857142857142 226.45428571428573 71.47857142857143Q227.99428571428572 73.01857142857142 229.0 74.52714285714285Q229.06285714285713 74.59 229.78571428571428 75.69Q230.50857142857143 76.78999999999999 231.57714285714286 78.36142857142858Q232.6457142857143 79.93285714285715 233.80857142857144 81.50428571428571Q234.9714285714286 83.07571428571428 235.85142857142858 84.14428571428572Q237.2342857142857 85.77857142857142 238.39714285714285 86.81571428571428Q239.56 87.85285714285715 240.88 88.38714285714286Q242.2 88.92142857142856 243.89714285714285 88.92142857142856V89.55H238.68Q235.4114285714286 89.55 232.8657142857143 88.85857142857142Q230.32 88.16714285714285 228.4342857142857 86.78428571428572Q226.54857142857142 85.40142857142857 225.16571428571427 83.32714285714286Q224.78857142857143 82.76142857142857 224.09714285714284 81.59857142857143Q223.40571428571428 80.43571428571428 222.5885714285714 78.99Q221.77142857142857 77.5442857142857 220.98571428571427 76.19285714285714Q220.2 74.84142857142857 219.66571428571427 73.77285714285713Q219.13142857142856 72.7042857142857 218.94285714285715 72.2642857142857Q217.93714285714285 70.44142857142856 216.74285714285713 69.30999999999999Q215.54857142857142 68.17857142857142 214.16571428571427 68.05285714285714V67.4242857142857Q214.29142857142858 67.4242857142857 214.98285714285714 67.45571428571428Q215.6742857142857 67.48714285714286 216.5542857142857 67.4242857142857Q218.25142857142856 67.36142857142858 219.98 66.79571428571428Q221.70857142857142 66.22999999999999 223.09142857142857 64.69Q224.4742857142857 63.14999999999999 225.10285714285715 60.38428571428571Q225.22857142857143 59.818571428571424 225.3542857142857 58.93857142857142Q225.48 58.058571428571426 225.41714285714286 57.11571428571428Q225.22857142857143 52.71571428571428 223.15428571428572 50.45285714285714Q221.07999999999998 48.19 217.87428571428572 48.06428571428571Q216.68 48.00142857142857 215.36 48.03285714285714Q214.04 48.06428571428571 213.09714285714284 48.06428571428571H212.09142857142857V84.96142857142857Q212.09142857142857 86.59571428571428 213.28571428571428 87.75857142857143Q214.48 88.92142857142856 216.1142857142857 88.92142857142856H216.86857142857144V89.55H199.58285714285714V88.92142857142856H200.4Q202.03428571428572 88.92142857142856 203.19714285714286 87.75857142857143Q204.35999999999999 86.59571428571428 204.42285714285714 84.96142857142857ZM285.1942857142857 71.19571428571427 285.32 81.69285714285714Q283.8742857142857 84.14428571428572 281.48571428571427 86.12428571428572Q279.09714285714284 88.10428571428571 275.6714285714286 89.26714285714286Q272.24571428571426 90.42999999999999 267.65714285714284 90.42999999999999Q260.36571428571426 90.36714285714285 254.8342857142857 87.60142857142857Q249.30285714285714 84.83571428571429 246.2542857142857 79.71285714285715Q243.20571428571427 74.59 243.20571428571427 67.48714285714286Q243.20571428571427 60.50999999999999 246.22285714285712 55.38714285714285Q249.23999999999998 50.264285714285705 254.77142857142854 47.467142857142846Q260.30285714285714 44.669999999999995 267.9085714285714 44.669999999999995Q272.81142857142856 44.669999999999995 276.7085714285714 45.769999999999996Q280.60571428571427 46.87 283.30857142857144 48.378571428571426L283.81142857142856 58.498571428571424H283.24571428571426Q281.6742857142857 52.52714285714285 277.68285714285713 49.79285714285714Q273.69142857142856 47.058571428571426 268.3485714285714 47.058571428571426Q263.1942857142857 47.058571428571426 259.4542857142857 49.54142857142857Q255.7142857142857 52.02428571428571 253.67142857142855 56.58142857142857Q251.6285714285714 61.138571428571424 251.6285714285714 67.36142857142858Q251.6285714285714 73.58428571428571 253.6085714285714 78.2042857142857Q255.5885714285714 82.82428571428571 259.2028571428571 85.37Q262.8171428571428 87.91571428571429 267.65714285714284 88.04142857142857Q272.37142857142857 88.04142857142857 275.86 86.43857142857144Q279.3485714285714 84.83571428571429 281.58 81.12714285714286Q283.81142857142856 77.41857142857143 284.69142857142856 71.19571428571427ZM309.14285714285717 44.418571428571425 327.30857142857144 85.27571428571429Q328.25142857142856 87.16142857142857 329.69714285714286 87.97857142857143Q331.2057142857143 88.92142857142856 332.6514285714286 88.92142857142856H333.1542857142857V89.55H315.1142857142857V88.92142857142856H315.68Q316.87428571428575 88.92142857142856 317.81714285714287 87.85285714285715Q318.69714285714286 86.91 318.13142857142856 85.14999999999999L314.6742857142857 76.22428571428571H299.1485714285714L295.62857142857143 84.96142857142857Q295.1257142857143 86.21857142857142 295.44000000000005 87.09857142857143Q295.75428571428574 87.97857142857143 296.5085714285715 88.44999999999999Q297.2628571428572 88.92142857142856 298.01714285714286 88.92142857142856H298.58285714285716V89.55H285.3828571428572V88.92142857142856H285.9485714285714Q287.39428571428573 88.92142857142856 288.9657142857143 87.97857142857143Q290.2857142857143 87.22428571428571 291.22857142857146 85.46428571428571L305.74857142857144 52.08714285714285Q305.87428571428575 51.83571428571428 306.28285714285715 50.86142857142856Q306.69142857142856 49.88714285714285 307.2257142857143 48.629999999999995Q307.76 47.372857142857136 308.13714285714286 46.209999999999994Q308.51428571428573 45.04714285714285 308.57714285714286 44.418571428571425ZM307.06857142857143 56.801428571428566 300.1542857142857 73.83571428571429H313.7314285714286ZM336.98857142857145 44.607142857142854 369.61142857142863 76.85285714285715V50.012857142857136Q369.54857142857145 48.378571428571426 368.4485714285714 47.278571428571425Q367.34857142857146 46.17857142857142 365.7142857142858 46.17857142857142H364.52000000000004V45.55H381.4914285714286V46.17857142857142H380.36Q378.78857142857146 46.17857142857142 377.6571428571429 47.278571428571425Q376.52571428571434 48.378571428571426 376.46285714285716 50.012857142857136V82.38428571428571Q376.46285714285716 84.64714285714285 376.6514285714286 86.47Q376.84000000000003 88.29285714285714 377.02857142857147 89.36142857142858L377.1542857142857 90.42999999999999H376.58857142857147L343.96571428571434 58.24714285714285L344.02857142857147 85.08714285714285Q344.02857142857147 86.65857142857142 345.16 87.78999999999999Q346.2914285714286 88.92142857142856 347.8628571428572 88.92142857142856H349.0571428571429V89.55H332.02285714285716V88.92142857142856H333.2171428571429Q334.78857142857146 88.92142857142856 335.9200000000001 87.78999999999999Q337.05142857142863 86.65857142857142 337.05142857142863 85.08714285714285V52.46428571428571Q337.05142857142863 49.06999999999999 336.7371428571429 46.80714285714285L336.36 44.607142857142854ZM404.1828571428572 44.418571428571425 422.34857142857146 85.27571428571429Q423.2914285714286 87.16142857142857 424.7371428571429 87.97857142857143Q426.2457142857143 88.92142857142856 427.6914285714286 88.92142857142856H428.19428571428574V89.55H410.1542857142857V88.92142857142856H410.72Q411.91428571428577 88.92142857142856 412.8571428571429 87.85285714285715Q413.7371428571429 86.91 413.1714285714286 85.14999999999999L409.7142857142857 76.22428571428571H394.18857142857144L390.66857142857145 84.96142857142857Q390.16571428571433 86.21857142857142 390.48 87.09857142857143Q390.79428571428576 87.97857142857143 391.54857142857145 88.44999999999999Q392.3028571428572 88.92142857142856 393.0571428571429 88.92142857142856H393.6228571428572V89.55H380.4228571428572V88.92142857142856H380.98857142857145Q382.43428571428575 88.92142857142856 384.0057142857143 87.97857142857143Q385.3257142857143 87.22428571428571 386.2685714285715 85.46428571428571L400.78857142857146 52.08714285714285Q400.91428571428577 51.83571428571428 401.3228571428572 50.86142857142856Q401.7314285714286 49.88714285714285 402.2657142857143 48.629999999999995Q402.8 47.372857142857136 403.1771428571429 46.209999999999994Q403.55428571428575 45.04714285714285 403.6171428571429 44.418571428571425ZM402.10857142857145 56.801428571428566 395.19428571428574 73.83571428571429H408.7714285714286ZM445.8571428571429 44.607142857142854 478.48 76.85285714285715V50.012857142857136Q478.4171428571429 48.378571428571426 477.3171428571429 47.278571428571425Q476.2171428571429 46.17857142857142 474.58285714285716 46.17857142857142H473.3885714285715V45.55H490.36000000000007V46.17857142857142H489.22857142857146Q487.6571428571429 46.17857142857142 486.52571428571434 47.278571428571425Q485.3942857142858 48.378571428571426 485.3314285714286 50.012857142857136V82.38428571428571Q485.3314285714286 84.64714285714285 485.52000000000004 86.47Q485.7085714285715 88.29285714285714 485.8971428571429 89.36142857142858L486.0228571428572 90.42999999999999H485.4571428571429L452.8342857142858 58.24714285714285L452.8971428571429 85.08714285714285Q452.8971428571429 86.65857142857142 454.02857142857147 87.78999999999999Q455.16 88.92142857142856 456.73142857142864 88.92142857142856H457.9257142857143V89.55H440.8914285714286V88.92142857142856H442.08571428571435Q443.6571428571429 88.92142857142856 444.78857142857146 87.78999999999999Q445.9200000000001 86.65857142857142 445.9200000000001 85.08714285714285V52.46428571428571Q445.9200000000001 49.06999999999999 445.6057142857143 46.80714285714285L445.22857142857146 44.607142857142854ZM527.2571428571429 77.60714285714286 524.1142857142858 89.55H493.6914285714286V88.92142857142856H494.5085714285715Q496.14285714285717 88.92142857142856 497.3057142857143 87.75857142857143Q498.46857142857147 86.59571428571428 498.5314285714286 84.96142857142857V50.138571428571424Q498.46857142857147 48.50428571428571 497.3057142857143 47.341428571428565Q496.14285714285717 46.17857142857142 494.5085714285715 46.17857142857142H493.6914285714286V45.55H515.7542857142857Q517.1371428571429 45.55 518.6771428571428 45.36142857142857Q520.2171428571429 45.17285714285714 521.537142857143 44.921428571428564Q522.8571428571429 44.669999999999995 523.4228571428572 44.418571428571425V54.349999999999994H522.7942857142857V53.46999999999999Q522.7942857142857 51.08142857142857 521.2857142857143 49.50999999999999Q520.0285714285715 48.25285714285714 518.08 48.00142857142857H506.20000000000005V66.66999999999999H515.2514285714286Q517.2 66.60714285714286 518.52 65.28714285714285Q519.84 63.96714285714285 519.84 62.01857142857142V61.38999999999999H520.4685714285715V74.33857142857143H519.84V73.64714285714285Q519.84 71.69857142857143 518.52 70.37857142857143Q517.2 69.05857142857143 515.2514285714286 69.05857142857143H506.20000000000005V87.09857142857143H514.6228571428572Q517.8285714285714 87.09857142857143 520.1542857142857 85.93571428571428Q522.48 84.77285714285713 524.0514285714287 82.60428571428571Q525.6228571428572 80.43571428571428 526.6285714285715 77.60714285714286ZM546.1771428571429 45.55V46.17857142857142H545.4228571428572Q544.6057142857144 46.17857142857142 543.8828571428572 46.77571428571428Q543.1600000000001 47.372857142857136 542.9714285714286 48.25285714285714Q542.72 49.06999999999999 543.0971428571429 49.88714285714285L551.3314285714287 62.64714285714285L559.3142857142858 50.07571428571428Q559.8800000000001 49.19571428571428 559.6285714285715 48.28428571428571Q559.3771428571429 47.372857142857136 558.6857142857143 46.77571428571428Q557.9942857142858 46.17857142857142 557.1142857142858 46.17857142857142H556.36V45.55H571.3828571428572V46.17857142857142H570.5028571428572Q568.5542857142858 46.17857142857142 566.9200000000001 47.309999999999995Q565.3485714285715 48.31571428571428 564.3428571428572 49.63571428571428L553.4057142857143 65.85285714285715L566.2285714285715 85.77857142857142Q567.1714285714286 86.91 568.5542857142858 87.78999999999999Q570.2514285714286 88.92142857142856 572.2 88.92142857142856H573.08V89.55H553.72V88.92142857142856H554.4742857142858Q555.7942857142858 88.92142857142856 556.6742857142858 87.66428571428571Q557.4285714285714 86.53285714285714 556.8000000000001 85.33857142857143L547.6228571428572 70.88142857142857L538.0685714285714 85.21285714285715Q537.6285714285715 85.96714285714286 537.88 86.78428571428572Q538.1314285714286 87.72714285714285 538.8542857142858 88.32428571428571Q539.5771428571429 88.92142857142856 540.3942857142857 88.92142857142856H541.2114285714287V89.55H526.1257142857144V88.92142857142856H527.0057142857144Q529.0171428571429 88.92142857142856 530.6514285714286 87.78999999999999Q532.0342857142857 86.84714285714286 533.0400000000001 85.65285714285714L545.5485714285714 67.67571428571428L534.1085714285715 49.88714285714285Q533.1028571428571 48.44142857142857 531.4371428571428 47.309999999999995Q529.7714285714286 46.17857142857142 527.7600000000001 46.17857142857142H526.88V45.55ZM588.8571428571429 45.55V46.17857142857142H587.8514285714286Q586.4685714285714 46.17857142857142 585.4942857142858 47.058571428571426Q584.52 47.93857142857142 584.52 49.32142857142857V73.20714285714286Q584.52 77.67 586.06 81.00142857142856Q587.6 84.33285714285714 590.4285714285714 86.15571428571428Q593.2571428571429 87.97857142857143 597.0285714285715 87.97857142857143Q601.0514285714286 87.97857142857143 603.9428571428572 86.25Q606.8342857142858 84.52142857142857 608.4371428571429 81.41Q610.0400000000001 78.29857142857142 610.0400000000001 74.02428571428571V49.32142857142857Q610.0400000000001 47.93857142857142 609.0657142857144 47.058571428571426Q608.0914285714287 46.17857142857142 606.7085714285714 46.17857142857142H605.7028571428572V45.55H618.3371428571429V46.17857142857142H617.3314285714287Q615.9485714285714 46.17857142857142 614.9742857142858 47.058571428571426Q614.0 47.93857142857142 614.0 49.32142857142857V73.77285714285713Q614.0 78.80142857142857 611.8628571428571 82.54142857142857Q609.7257142857143 86.28142857142856 605.7342857142858 88.35571428571427Q601.7428571428571 90.42999999999999 596.2742857142857 90.42999999999999Q590.1142857142858 90.42999999999999 585.7457142857143 88.38714285714286Q581.3771428571429 86.34428571428572 579.1142857142858 82.60428571428571Q576.8514285714286 78.86428571428571 576.8514285714286 73.83571428571429V49.32142857142857Q576.8514285714286 47.93857142857142 575.8771428571429 47.058571428571426Q574.9028571428572 46.17857142857142 573.52 46.17857142857142H572.5142857142857V45.55ZM635.6857142857143 44.669999999999995Q636.88 44.669999999999995 638.5142857142857 44.79571428571428Q640.1485714285715 44.921428571428564 641.8457142857143 45.10999999999999Q642.4114285714286 45.23571428571428 642.9771428571429 45.29857142857142H646.6857142857143L646.6228571428571 46.61857142857142H646.5600000000001L646.12 54.03571428571428H645.4914285714286Q645.4914285714286 50.82999999999999 643.1971428571429 48.94428571428571Q640.9028571428572 47.058571428571426 637.257142857143 47.058571428571426Q633.6114285714286 47.058571428571426 631.4428571428572 48.94428571428571Q629.2742857142857 50.82999999999999 629.2114285714287 53.53285714285714Q629.0857142857143 55.10428571428571 630.1228571428571 56.58142857142857Q631.1600000000001 58.058571428571426 632.9200000000001 59.31571428571428L645.0514285714286 68.30428571428571Q647.6285714285715 70.00142857142856 648.8228571428572 72.42142857142856Q650.0171428571429 74.84142857142857 649.8914285714286 77.85857142857142Q649.7028571428572 83.64142857142856 645.7114285714285 87.03571428571428Q641.72 90.42999999999999 634.8685714285715 90.42999999999999Q632.5428571428572 90.42999999999999 630.1228571428571 90.02142857142857Q627.7028571428572 89.61285714285714 625.6914285714286 88.7642857142857Q623.6800000000001 87.91571428571429 622.4857142857143 86.72142857142858Q622.1085714285715 85.46428571428571 622.1714285714286 83.67285714285714Q622.2342857142858 81.88142857142857 622.6742857142858 79.96428571428572Q623.1142857142858 78.04714285714286 623.7428571428571 76.72714285714285H624.3085714285714Q624.0571428571429 79.93285714285715 625.3771428571429 82.54142857142857Q626.6971428571429 85.14999999999999 629.2428571428572 86.62714285714284Q631.7885714285715 88.10428571428571 635.2457142857144 88.04142857142857Q639.1428571428572 87.91571428571429 641.5 85.84142857142857Q643.8571428571429 83.76714285714286 643.8571428571429 80.49857142857142Q643.8571428571429 78.61285714285714 642.8514285714286 77.07285714285715Q641.8457142857143 75.53285714285714 639.7085714285714 74.27571428571429L628.3314285714287 65.66428571428571Q625.44 63.778571428571425 624.2142857142858 61.107142857142854Q622.9885714285715 58.43571428571428 623.1771428571429 55.54428571428571Q623.3657142857143 52.52714285714285 624.8742857142856 50.04428571428571Q626.3828571428571 47.561428571428564 629.1171428571429 46.115714285714276Q631.8514285714286 44.669999999999995 635.6857142857143 44.669999999999995Z"/><path d="M198.23756462585033 109.05V111.99642857142857Q197.82685034013605 112.53214285714286 197.07685034013605 113.06785714285715Q196.32685034013605 113.60357142857143 195.26435034013605 113.9517857142857Q194.20185034013605 114.3 192.8089931972789 114.3Q190.8804217687075 114.28214285714286 189.40720748299321 113.47857142857143Q187.9339931972789 112.675 187.11256462585033 111.21964285714284Q186.29113605442177 109.7642857142857 186.29113605442177 107.8Q186.29113605442177 105.83571428571429 187.11256462585033 104.37142857142857Q187.9339931972789 102.90714285714286 189.40720748299321 102.10357142857143Q190.8804217687075 101.3 192.8447074829932 101.3Q193.82685034013605 101.3 194.66613605442177 101.4517857142857Q195.5054217687075 101.60357142857143 196.1839931972789 101.8625Q196.86256462585033 102.12142857142857 197.3804217687075 102.44285714285714L197.6304217687075 105.1392857142857H197.4697074829932Q197.1839931972789 104.03214285714286 196.5589931972789 103.3267857142857Q195.9339931972789 102.62142857142857 195.03220748299321 102.2642857142857Q194.1304217687075 101.90714285714286 193.02327891156463 101.90714285714286Q191.54113605442177 101.90714285714286 190.4429217687075 102.6392857142857Q189.3447074829932 103.37142857142857 188.7464931972789 104.7017857142857Q188.14827891156463 106.03214285714286 188.14827891156463 107.83571428571429Q188.14827891156463 109.58571428571429 188.73756462585033 110.90714285714286Q189.32685034013605 112.22857142857143 190.38935034013605 112.9517857142857Q191.45185034013605 113.675 192.89827891156463 113.69285714285714Q193.6304217687075 113.69285714285714 194.3179217687075 113.49642857142857Q195.0054217687075 113.3 195.59470748299321 112.94285714285715Q196.1839931972789 112.58571428571429 196.57685034013605 112.06785714285714L196.5947074829932 109.05Q196.5947074829932 108.24642857142857 195.6839931972789 108.24642857142857H195.39827891156463V108.06785714285714H199.39827891156463V108.24642857142857H199.1304217687075Q198.5947074829932 108.24642857142857 198.3804217687075 108.5142857142857Q198.2197074829932 108.71071428571429 198.23756462585033 109.05ZM213.97759898831328 110.90714285714286 213.01331327402755 114.05H204.9954561311704V113.87142857142857H205.22759898831328Q205.69188470259897 113.87142857142857 206.0222418454561 113.54107142857143Q206.35259898831328 113.21071428571429 206.3704561311704 112.74642857142857V102.85357142857143Q206.3704561311704 102.3892857142857 206.0311704168847 102.05892857142857Q205.69188470259897 101.72857142857143 205.22759898831328 101.72857142857143H205.01331327402755L204.9954561311704 101.55H210.7097418454561Q211.10259898831328 101.55 211.54009898831328 101.49642857142857Q211.97759898831328 101.44285714285714 212.35259898831328 101.37142857142857Q212.72759898831328 101.3 212.88831327402755 101.22857142857143V103.7642857142857H212.7097418454561V103.47857142857143Q212.7097418454561 102.925 212.35259898831328 102.55Q212.04902755974183 102.24642857142857 211.60259898831328 102.175H208.0311704168847V107.58571428571429H210.8347418454561Q211.29902755974183 107.56785714285714 211.60259898831328 107.24642857142857Q211.9061704168847 106.925 211.9061704168847 106.47857142857143V106.2642857142857H212.0847418454561V109.5142857142857H211.9061704168847V109.28214285714286Q211.9061704168847 108.83571428571429 211.60259898831328 108.5142857142857Q211.29902755974183 108.19285714285714 210.8347418454561 108.19285714285714H208.0311704168847V113.425H210.51331327402755Q211.44188470259897 113.425 212.06688470259897 113.1125Q212.69188470259897 112.8 213.10259898831328 112.22857142857143Q213.51331327402755 111.65714285714286 213.79902755974183 110.90714285714286ZM223.53906192220475 101.3Q223.8426333507762 101.3 224.23549049363334 101.33571428571429Q224.62834763649047 101.37142857142857 225.03906192220475 101.425Q225.1819190650619 101.46071428571429 225.3069190650619 101.47857142857143H226.19977620791903V101.85357142857143L226.12834763649047 103.81785714285714H225.9676333507762Q225.9676333507762 102.94285714285714 225.3426333507762 102.425Q224.7176333507762 101.90714285714286 223.7712047793476 101.90714285714286Q222.7712047793476 101.90714285714286 222.15513335077617 102.4875Q221.53906192220475 103.06785714285714 221.53906192220475 103.85357142857143Q221.5212047793476 104.24642857142857 221.7444190650619 104.68392857142857Q221.9676333507762 105.12142857142857 222.4319190650619 105.49642857142857L225.91406192220475 108.40714285714286Q226.53906192220475 108.8892857142857 226.79799049363334 109.52321428571429Q227.0569190650619 110.15714285714286 227.03906192220475 110.83571428571429Q227.00334763649047 112.40714285714286 225.98549049363334 113.35357142857143Q224.9676333507762 114.3 223.23549049363334 114.3Q222.6819190650619 114.3 222.04799049363334 114.19285714285715Q221.41406192220475 114.08571428571429 220.86049049363334 113.8625Q220.3069190650619 113.6392857142857 219.9676333507762 113.28214285714286Q219.87834763649047 112.96071428571429 219.88727620791906 112.4875Q219.8962047793476 112.0142857142857 219.9944190650619 111.5142857142857Q220.0926333507762 111.0142857142857 220.25334763649047 110.62142857142857H220.41406192220475Q220.32477620791903 111.53214285714286 220.67299049363334 112.24642857142857Q221.0212047793476 112.96071428571429 221.69084763649047 113.34464285714286Q222.36049049363334 113.72857142857143 223.23549049363334 113.69285714285714Q224.28906192220475 113.65714285714286 224.97656192220475 113.04107142857143Q225.66406192220475 112.425 225.66406192220475 111.425Q225.66406192220475 110.90714285714286 225.4319190650619 110.47857142857143Q225.19977620791903 110.05 224.7176333507762 109.71071428571429L221.3962047793476 106.8892857142857Q220.7176333507762 106.3892857142857 220.4319190650619 105.71071428571429Q220.1462047793476 105.03214285714286 220.1819190650619 104.35357142857143Q220.2176333507762 103.55 220.61049049363334 102.84464285714284Q221.00334763649047 102.1392857142857 221.7444190650619 101.71964285714284Q222.48549049363334 101.3 223.53906192220475 101.3ZM243.2433819989534 101.21071428571429V103.74642857142857L243.06481057038198 103.72857142857143V103.46071428571429Q243.06481057038198 102.8892857142857 242.69873914181056 102.52321428571429Q242.33266771323912 102.15714285714286 241.76123914181053 102.1392857142857H238.72552485609626V112.74642857142857Q238.7433819989534 113.21071428571429 239.07373914181053 113.54107142857143Q239.40409628466767 113.87142857142857 239.8683819989534 113.87142857142857H240.10052485609626V114.05H235.68981057038198V113.87142857142857H235.92195342752484Q236.38623914181053 113.87142857142857 236.71659628466767 113.54107142857143Q237.04695342752484 113.21071428571429 237.06481057038198 112.74642857142857V102.1392857142857H234.02909628466767Q233.45766771323912 102.15714285714286 233.09159628466767 102.52321428571429Q232.72552485609626 102.8892857142857 232.72552485609626 103.46071428571429V103.72857142857143L232.54695342752484 103.74642857142857V101.21071428571429Q232.72552485609626 101.28214285714286 233.09159628466767 101.35357142857143Q233.45766771323912 101.425 233.90409628466767 101.47857142857143Q234.35052485609626 101.53214285714286 234.72552485609626 101.53214285714286H241.06481057038198Q241.45766771323912 101.53214285714286 241.89516771323912 101.47857142857143Q242.33266771323912 101.425 242.70766771323912 101.35357142857143Q243.08266771323912 101.28214285714286 243.2433819989534 101.21071428571429ZM250.12627350427348 112.74642857142857V102.85357142857143Q250.10841636141635 102.3892857142857 249.77805921855918 102.05892857142857Q249.44770207570204 101.72857142857143 248.98341636141635 101.72857142857143H248.75127350427348V101.55H253.16198778998776V101.72857142857143H252.9298449328449Q252.46555921855918 101.72857142857143 252.13520207570204 102.05892857142857Q251.8048449328449 102.3892857142857 251.78698778998776 102.85357142857143V112.74642857142857Q251.8048449328449 113.21071428571429 252.13520207570204 113.54107142857143Q252.46555921855918 113.87142857142857 252.9298449328449 113.87142857142857H253.16198778998776V114.05H248.75127350427348V113.87142857142857H248.98341636141635Q249.44770207570204 113.87142857142857 249.77805921855918 113.54107142857143Q250.10841636141635 113.21071428571429 250.12627350427348 112.74642857142857ZM266.08059358102213 101.3Q268.08059358102213 101.3 269.5716650095936 102.10357142857143Q271.062736438165 102.90714285714286 271.8930935810222 104.37142857142857Q272.7234507238793 105.83571428571429 272.7234507238793 107.8Q272.7234507238793 109.7642857142857 271.8930935810222 111.22857142857143Q271.062736438165 112.69285714285714 269.5716650095936 113.49642857142857Q268.08059358102213 114.3 266.08059358102213 114.3Q264.11630786673646 114.3 262.625236438165 113.49642857142857Q261.1341650095936 112.69285714285714 260.3038078667364 111.22857142857143Q259.4734507238793 109.7642857142857 259.4734507238793 107.8Q259.4734507238793 105.83571428571429 260.3038078667364 104.37142857142857Q261.1341650095936 102.90714285714286 262.625236438165 102.10357142857143Q264.11630786673646 101.3 266.08059358102213 101.3ZM266.08059358102213 113.69285714285714Q267.52702215245074 113.69285714285714 268.5805935810222 112.96071428571429Q269.6341650095936 112.22857142857143 270.2234507238793 110.90714285714286Q270.812736438165 109.58571428571429 270.812736438165 107.8Q270.812736438165 106.0142857142857 270.2234507238793 104.69285714285714Q269.6341650095936 103.37142857142857 268.5805935810222 102.6392857142857Q267.52702215245074 101.90714285714286 266.08059358102213 101.90714285714286Q264.66987929530785 101.90714285714286 263.60737929530785 102.6392857142857Q262.54487929530785 103.37142857142857 261.9555935810222 104.69285714285714Q261.36630786673646 106.0142857142857 261.36630786673646 107.8Q261.36630786673646 109.58571428571429 261.9555935810222 110.90714285714286Q262.54487929530785 112.22857142857143 263.60737929530785 112.96071428571429Q264.66987929530785 113.69285714285714 266.08059358102213 113.69285714285714ZM279.94562794348514 101.28214285714286 289.44562794348514 111.03214285714286V102.81785714285714Q289.42777080062797 102.35357142857143 289.11527080062797 102.04107142857143Q288.80277080062797 101.72857142857143 288.33848508634225 101.72857142857143H287.9991993720565V101.55H292.2491993720565V101.72857142857143H291.92777080062797Q291.4813422291994 101.72857142857143 291.15991365777086 102.04107142857143Q290.83848508634225 102.35357142857143 290.82062794348514 102.81785714285714V112.0142857142857Q290.82062794348514 112.62142857142857 290.86527080062797 113.14821428571429Q290.9099136577708 113.675 290.96348508634225 113.97857142857143L290.9991993720565 114.3H290.83848508634225L281.32062794348514 104.55L281.33848508634225 112.78214285714286Q281.33848508634225 113.22857142857143 281.65991365777086 113.55Q281.9813422291994 113.87142857142857 282.42777080062797 113.87142857142857H282.7670565149137V114.05H278.5170565149137V113.87142857142857H278.8563422291994Q279.30277080062797 113.87142857142857 279.6241993720565 113.55Q279.94562794348514 113.22857142857143 279.94562794348514 112.78214285714286V103.5142857142857Q279.94562794348514 102.56785714285714 279.8563422291994 101.925L279.7670565149137 101.28214285714286ZM303.5785194488052 101.2642857142857 308.63209087737664 112.96071428571429Q308.88209087737664 113.40714285714286 309.25709087737664 113.60357142857143Q309.68566230594803 113.87142857142857 310.09637659166236 113.87142857142857H310.2392337345195V114.05H305.6678051630909V113.87142857142857H305.8285194488052Q306.18566230594803 113.87142857142857 306.4535194488052 113.5767857142857Q306.72137659166236 113.28214285714286 306.50709087737664 112.74642857142857L305.4535194488052 109.99642857142857H300.84637659166236L299.68566230594803 112.90714285714286Q299.63209087737664 113.15714285714286 299.7035194488052 113.35357142857143Q299.7928051630909 113.60357142857143 299.9981623059481 113.7375Q300.2035194488052 113.87142857142857 300.4178051630909 113.87142857142857H300.5785194488052V114.05H296.9178051630909V113.87142857142857H297.0785194488052Q297.4892337345195 113.87142857142857 297.93566230594803 113.60357142857143Q298.2928051630909 113.40714285714286 298.5428051630909 112.96071428571429L302.68566230594803 103.2642857142857Q302.7035194488052 103.22857142857143 302.81959087737664 102.9875Q302.93566230594803 102.74642857142857 303.06959087737664 102.40714285714284Q303.2035194488052 102.06785714285714 303.3106623059481 101.74642857142857Q303.4178051630909 101.425 303.4178051630909 101.2642857142857ZM301.09637659166236 109.3892857142857H305.22137659166236L303.2035194488052 104.10357142857143ZM324.1399823826967 110.90714285714286 323.175696668411 114.05H315.15783952555387V113.87142857142857H315.3899823826967Q315.8542680969824 113.87142857142857 316.18462523983953 113.54107142857143Q316.5149823826967 113.21071428571429 316.53283952555387 112.74642857142857V102.85357142857143Q316.5149823826967 102.3892857142857 316.18462523983953 102.05892857142857Q315.8542680969824 101.72857142857143 315.3899823826967 101.72857142857143H315.15783952555387V101.55H319.56855381126815V101.72857142857143H319.3364109541253Q318.8721252398396 101.72857142857143 318.5417680969824 102.05892857142857Q318.2114109541253 102.3892857142857 318.19355381126815 102.85357142857143V113.425H320.675696668411Q321.6042680969824 113.425 322.2292680969824 113.1125Q322.8542680969824 112.8 323.2649823826967 112.22857142857143Q323.675696668411 111.65714285714286 323.9614109541253 110.90714285714286ZM338.7371596023025 110.90714285714286 337.77287388801676 114.05H329.75501674515965V113.87142857142857H329.9871596023025Q330.4514453165882 113.87142857142857 330.7818024594453 113.54107142857143Q331.1121596023025 113.21071428571429 331.13001674515965 112.74642857142857V102.85357142857143Q331.13001674515965 102.3892857142857 330.7907310308739 102.05892857142857Q330.4514453165882 101.72857142857143 329.9871596023025 101.72857142857143H329.77287388801676L329.75501674515965 101.55H335.4693024594454Q335.8621596023025 101.55 336.2996596023025 101.49642857142857Q336.7371596023025 101.44285714285714 337.1121596023025 101.37142857142857Q337.4871596023025 101.3 337.64787388801676 101.22857142857143V103.7642857142857H337.4693024594454V103.47857142857143Q337.4693024594454 102.925 337.1121596023025 102.55Q336.8085881737311 102.24642857142857 336.3621596023025 102.175H332.7907310308739V107.58571428571429H335.5943024594454Q336.0585881737311 107.56785714285714 336.36215960230254 107.24642857142857Q336.6657310308739 106.925 336.6657310308739 106.47857142857143V106.2642857142857H336.8443024594454V109.5142857142857H336.6657310308739V109.28214285714286Q336.6657310308739 108.83571428571429 336.36215960230254 108.5142857142857Q336.0585881737311 108.19285714285714 335.5943024594454 108.19285714285714H332.7907310308739V113.425H335.27287388801676Q336.2014453165882 113.425 336.8264453165882 113.1125Q337.4514453165882 112.8 337.8621596023025 112.22857142857143Q338.27287388801676 111.65714285714286 338.5585881737311 110.90714285714286ZM354.7172283272284 112.74642857142857V102.85357142857143Q354.7172283272284 102.3892857142857 354.37794261294266 102.05892857142857Q354.038656898657 101.72857142857143 353.5743711843713 101.72857142857143H353.36008547008555L353.3422283272284 101.55H358.4315140415141Q359.7172283272284 101.55 360.5832997557998 101.96964285714284Q361.4493711843713 102.3892857142857 361.90472832722844 103.16607142857143Q362.36008547008555 103.94285714285714 362.36008547008555 104.99642857142857Q362.3779426129427 105.83571428571429 362.04758547008555 106.52321428571429Q361.7172283272284 107.21071428571429 361.163656898657 107.675Q360.61008547008555 108.1392857142857 359.90472832722844 108.3625Q359.1993711843713 108.58571428571429 358.4493711843713 108.5142857142857Q357.6993711843713 108.44285714285714 356.98508547008555 108.03214285714286V107.85357142857143L357.2707997557998 107.87142857142857Q357.538656898657 107.90714285714286 357.976156898657 107.87142857142857Q358.413656898657 107.83571428571429 358.8868711843713 107.65714285714286Q359.36008547008555 107.47857142857143 359.77972832722844 107.05Q360.1993711843713 106.62142857142857 360.413656898657 105.8892857142857Q360.4672283272284 105.675 360.50294261294266 105.38035714285715Q360.538656898657 105.08571428571429 360.5207997557998 104.81785714285714Q360.5029426129427 103.62142857142857 359.8868711843713 102.8892857142857Q359.2707997557998 102.15714285714286 358.1457997557998 102.15714285714286H356.3779426129427V112.74642857142857Q356.3957997557998 113.21071428571429 356.726156898657 113.54107142857143Q357.0565140415141 113.87142857142857 357.5207997557998 113.87142857142857H357.7529426129427V114.05H353.3422283272284V113.87142857142857H353.5743711843713Q354.038656898657 113.87142857142857 354.3690140415141 113.54107142857143Q354.6993711843713 113.21071428571429 354.7172283272284 112.74642857142857ZM377.31440554683417 110.90714285714286 376.35011983254844 114.05H368.33226268969133V113.87142857142857H368.56440554683417Q369.0286912611199 113.87142857142857 369.359048403977 113.54107142857143Q369.68940554683417 113.21071428571429 369.70726268969133 112.74642857142857V102.85357142857143Q369.70726268969133 102.3892857142857 369.3679769754056 102.05892857142857Q369.0286912611199 101.72857142857143 368.56440554683417 101.72857142857143H368.35011983254844L368.33226268969133 101.55H374.04654840397706Q374.43940554683417 101.55 374.87690554683417 101.49642857142857Q375.31440554683417 101.44285714285714 375.68940554683417 101.37142857142857Q376.06440554683417 101.3 376.22511983254844 101.22857142857143V103.7642857142857H376.04654840397706V103.47857142857143Q376.04654840397706 102.925 375.68940554683417 102.55Q375.3858341182628 102.24642857142857 374.93940554683417 102.175H371.3679769754056V107.58571428571429H374.17154840397706Q374.6358341182628 107.56785714285714 374.9394055468342 107.24642857142857Q375.2429769754056 106.925 375.2429769754056 106.47857142857143V106.2642857142857H375.42154840397706V109.5142857142857H375.2429769754056V109.28214285714286Q375.2429769754056 108.83571428571429 374.9394055468342 108.5142857142857Q374.6358341182628 108.19285714285714 374.17154840397706 108.19285714285714H371.3679769754056V113.425H373.85011983254844Q374.7786912611199 113.425 375.4036912611199 113.1125Q376.0286912611199 112.8 376.43940554683417 112.22857142857143Q376.85011983254844 111.65714285714286 377.1358341182628 110.90714285714286ZM384.5901541950114 112.74642857142857V102.85357142857143Q384.5722970521543 102.3892857142857 384.2419399092971 102.05892857142857Q383.91158276644 101.72857142857143 383.4472970521543 101.72857142857143H383.2151541950114V101.55H388.4651541950114Q389.26872562358284 101.55 389.96515419501145 101.7642857142857Q390.66158276644 101.97857142857143 391.15265419501145 102.39821428571429Q391.64372562358284 102.81785714285714 391.9294399092971 103.44285714285714Q392.2151541950114 104.06785714285714 392.2151541950114 104.90714285714286Q392.2151541950114 105.72857142857143 391.8401541950114 106.50535714285715Q391.4651541950114 107.28214285714286 390.79551133786856 107.78214285714286Q390.1258684807257 108.28214285714286 389.2151541950114 108.31785714285714Q389.60801133786856 108.46071428571429 390.00086848072567 108.87142857142857Q390.39372562358284 109.28214285714286 390.6794399092971 109.675Q390.6794399092971 109.69285714285714 390.90265419501145 110.0142857142857Q391.1258684807257 110.33571428571429 391.46515419501145 110.80892857142857Q391.8044399092971 111.28214285714286 392.15265419501145 111.74642857142857Q392.5008684807257 112.21071428571429 392.76872562358284 112.5142857142857Q393.1258684807257 112.94285714285714 393.47408276644 113.2375Q393.8222970521543 113.53214285714286 394.22408276644 113.7017857142857Q394.6258684807257 113.87142857142857 395.1258684807257 113.87142857142857V114.05H393.8758684807257Q393.01872562358284 114.05 392.35801133786856 113.8267857142857Q391.6972970521543 113.60357142857143 391.21515419501145 113.21964285714286Q390.73301133786856 112.83571428571429 390.39372562358284 112.3892857142857Q390.3222970521543 112.2642857142857 390.09908276644 111.925Q389.8758684807257 111.58571428571429 389.59908276644 111.14821428571429Q389.3222970521543 110.71071428571429 389.0544399092971 110.28214285714286Q388.78658276644 109.85357142857143 388.59015419501145 109.54107142857143Q388.39372562358284 109.22857142857143 388.3401541950114 109.1392857142857Q388.03658276644 108.65714285714286 387.66158276644 108.30892857142857Q387.28658276644 107.96071428571429 386.8401541950114 107.94285714285714V107.7642857142857Q386.85801133786856 107.7642857142857 387.09908276644 107.77321428571429Q387.3401541950114 107.78214285714286 387.66158276644 107.7642857142857Q388.1258684807257 107.74642857142857 388.65265419501145 107.60357142857143Q389.1794399092971 107.46071428571429 389.6169399092971 107.05Q390.0544399092971 106.6392857142857 390.26872562358284 105.83571428571429Q390.3222970521543 105.65714285714286 390.34908276644 105.3892857142857Q390.3758684807257 105.12142857142857 390.35801133786856 104.83571428571429Q390.3401541950114 103.60357142857143 389.7419399092971 102.91607142857143Q389.14372562358284 102.22857142857143 388.1794399092971 102.19285714285714Q387.76872562358284 102.15714285714286 387.3222970521543 102.16607142857143Q386.8758684807257 102.175 386.5544399092971 102.175H386.2508684807257V112.74642857142857Q386.2508684807257 113.21071428571429 386.59015419501145 113.54107142857143Q386.9294399092971 113.87142857142857 387.39372562358284 113.87142857142857H387.60801133786856V114.05H383.2151541950114V113.87142857142857H383.4472970521543Q383.91158276644 113.87142857142857 384.2419399092971 113.54107142857143Q384.5722970521543 113.21071428571429 384.5901541950114 112.74642857142857ZM420.4273657770802 108.83571428571429 420.33808006279446 111.72857142857143Q419.8916514913659 112.46071428571429 419.2041514913659 113.04107142857143Q418.5166514913659 113.62142857142857 417.5523657770802 113.96071428571429Q416.58808006279446 114.3 415.32022291993735 114.3Q413.3559372056516 114.28214285714286 411.847008634223 113.4875Q410.33808006279446 112.69285714285714 409.49879434850874 111.2375Q408.659508634223 109.78214285714286 408.659508634223 107.78214285714286Q408.659508634223 105.81785714285714 409.4898657770802 104.3625Q410.32022291993735 102.90714285714286 411.8291514913659 102.10357142857143Q413.33808006279446 101.3 415.409508634223 101.3Q416.7666514913659 101.3 417.8559372056516 101.63035714285715Q418.94522291993735 101.96071428571429 419.71308006279446 102.44285714285714L419.96308006279446 105.1392857142857H419.8023657770802Q419.37379434850874 103.49642857142857 418.2041514913659 102.7017857142857Q417.034508634223 101.90714285714286 415.4809372056516 101.90714285714286Q413.94522291993735 101.90714285714286 412.83808006279446 102.63035714285715Q411.7309372056516 103.35357142857143 411.1237943485088 104.66607142857143Q410.5166514913659 105.97857142857143 410.5166514913659 107.7642857142857Q410.5166514913659 109.53214285714286 411.1148657770802 110.85357142857143Q411.71308006279446 112.175 412.79343720565157 112.91607142857143Q413.87379434850874 113.65714285714286 415.32022291993735 113.69285714285714Q416.62379434850874 113.69285714285714 417.659508634223 113.22857142857143Q418.69522291993735 112.7642857142857 419.3737943485088 111.7017857142857Q420.0523657770802 110.6392857142857 420.284508634223 108.83571428571429ZM431.9888287109717 101.2642857142857 437.04240013954313 112.96071428571429Q437.29240013954313 113.40714285714286 437.66740013954313 113.60357142857143Q438.0959715681145 113.87142857142857 438.50668585382886 113.87142857142857H438.64954299668597V114.05H434.0781144252574V113.87142857142857H434.2388287109717Q434.5959715681145 113.87142857142857 434.8638287109717 113.5767857142857Q435.13168585382886 113.28214285714286 434.91740013954313 112.74642857142857L433.8638287109717 109.99642857142857H429.25668585382886L428.0959715681145 112.90714285714286Q428.04240013954313 113.15714285714286 428.1138287109717 113.35357142857143Q428.2031144252574 113.60357142857143 428.4084715681146 113.7375Q428.6138287109717 113.87142857142857 428.8281144252574 113.87142857142857H428.9888287109717V114.05H425.3281144252574V113.87142857142857H425.4888287109717Q425.89954299668597 113.87142857142857 426.3459715681145 113.60357142857143Q426.7031144252574 113.40714285714286 426.9531144252574 112.96071428571429L431.0959715681145 103.2642857142857Q431.1138287109717 103.22857142857143 431.22990013954313 102.9875Q431.3459715681145 102.74642857142857 431.47990013954313 102.40714285714284Q431.6138287109717 102.06785714285714 431.7209715681146 101.74642857142857Q431.8281144252574 101.425 431.8281144252574 101.2642857142857ZM429.50668585382886 109.3892857142857H433.63168585382886L431.6138287109717 104.10357142857143ZM456.06814878772036 101.3H456.22886307343464L457.6574345020061 112.74642857142857Q457.7467202162918 113.28214285714286 458.1217202162918 113.5767857142857Q458.4967202162918 113.87142857142857 458.96100593057747 113.87142857142857H459.2467202162918V114.05H454.8717202162918V113.8892857142857H455.1395773591489Q455.44314878772036 113.8892857142857 455.6395773591489 113.64821428571429Q455.83600593057747 113.40714285714286 455.83600593057747 113.12142857142857V113.10357142857143L455.06814878772036 105.08571428571429L451.46100593057747 112.46071428571429L451.31814878772036 112.7642857142857Q451.1574345020061 113.08571428571429 451.00564878772036 113.5142857142857Q450.85386307343464 113.94285714285714 450.81814878772036 114.33571428571429H450.6395773591489L446.06814878772036 105.19285714285714L445.31814878772036 113.10357142857143V113.12142857142857Q445.31814878772036 113.40714285714286 445.52350593057747 113.64821428571429Q445.72886307343464 113.8892857142857 446.0145773591489 113.8892857142857H446.2824345020061V114.05H442.72886307343464V113.87142857142857H443.0145773591489Q443.4967202162918 113.87142857142857 443.8717202162918 113.56785714285714Q444.22886307343464 113.3 444.3002916448632 112.8L445.71100593057747 101.3H445.8717202162918L451.0324345020061 111.47857142857143ZM465.9510402930404 112.74642857142857V102.85357142857143Q465.9510402930404 102.3892857142857 465.6117545787547 102.05892857142857Q465.27246886446903 101.72857142857143 464.8081831501833 101.72857142857143H464.5938974358976L464.5760402930404 101.55H469.66532600732614Q470.9510402930404 101.55 471.81711172161187 101.96964285714284Q472.6831831501833 102.3892857142857 473.1385402930405 103.16607142857143Q473.5938974358976 103.94285714285714 473.5938974358976 104.99642857142857Q473.61175457875476 105.83571428571429 473.2813974358976 106.52321428571429Q472.9510402930404 107.21071428571429 472.39746886446903 107.675Q471.8438974358976 108.1392857142857 471.1385402930405 108.3625Q470.4331831501833 108.58571428571429 469.6831831501833 108.5142857142857Q468.9331831501833 108.44285714285714 468.2188974358976 108.03214285714286V107.85357142857143L468.50461172161187 107.87142857142857Q468.77246886446903 107.90714285714286 469.20996886446903 107.87142857142857Q469.64746886446903 107.83571428571429 470.1206831501833 107.65714285714286Q470.5938974358976 107.47857142857143 471.0135402930405 107.05Q471.4331831501833 106.62142857142857 471.64746886446903 105.8892857142857Q471.7010402930404 105.675 471.7367545787547 105.38035714285715Q471.77246886446903 105.08571428571429 471.75461172161187 104.81785714285714Q471.73675457875476 103.62142857142857 471.1206831501833 102.8892857142857Q470.50461172161187 102.15714285714286 469.37961172161187 102.15714285714286H467.61175457875476V112.74642857142857Q467.62961172161187 113.21071428571429 467.95996886446903 113.54107142857143Q468.29032600732614 113.87142857142857 468.75461172161187 113.87142857142857H468.98675457875476V114.05H464.5760402930404V113.87142857142857H464.8081831501833Q465.27246886446903 113.87142857142857 465.60282600732614 113.54107142857143Q465.9331831501833 113.21071428571429 465.9510402930404 112.74642857142857ZM484.97678894121765 101.2642857142857 490.0303603697891 112.96071428571429Q490.2803603697891 113.40714285714286 490.6553603697891 113.60357142857143Q491.0839317983605 113.87142857142857 491.4946460840748 113.87142857142857H491.6375032269319V114.05H487.06607465550337V113.87142857142857H487.22678894121765Q487.5839317983605 113.87142857142857 487.85178894121765 113.5767857142857Q488.1196460840748 113.28214285714286 487.9053603697891 112.74642857142857L486.85178894121765 109.99642857142857H482.2446460840748L481.0839317983605 112.90714285714286Q481.0303603697891 113.15714285714286 481.10178894121765 113.35357142857143Q481.19107465550337 113.60357142857143 481.3964317983605 113.7375Q481.60178894121765 113.87142857142857 481.81607465550337 113.87142857142857H481.97678894121765V114.05H478.31607465550337V113.87142857142857H478.47678894121765Q478.8875032269319 113.87142857142857 479.3339317983605 113.60357142857143Q479.69107465550337 113.40714285714286 479.94107465550337 112.96071428571429L484.0839317983605 103.2642857142857Q484.10178894121765 103.22857142857143 484.21786036978904 102.9875Q484.3339317983605 102.74642857142857 484.46786036978904 102.40714285714284Q484.60178894121765 102.06785714285714 484.7089317983605 101.74642857142857Q484.81607465550337 101.425 484.81607465550337 101.2642857142857ZM482.4946460840748 109.3892857142857H486.6196460840748L484.60178894121765 104.10357142857143ZM508.52039473225204 109.05V111.99642857142857Q508.10968044653777 112.53214285714286 507.35968044653777 113.06785714285715Q506.60968044653777 113.60357142857143 505.54718044653777 113.9517857142857Q504.48468044653777 114.3 503.0918233036806 114.3Q501.16325187510915 114.28214285714286 499.6900375893949 113.47857142857143Q498.2168233036806 112.675 497.39539473225204 111.21964285714284Q496.57396616082343 109.7642857142857 496.57396616082343 107.8Q496.57396616082343 105.83571428571429 497.39539473225204 104.37142857142857Q498.2168233036806 102.90714285714286 499.6900375893949 102.10357142857143Q501.16325187510915 101.3 503.1275375893949 101.3Q504.10968044653777 101.3 504.9489661608235 101.4517857142857Q505.78825187510915 101.60357142857143 506.4668233036806 101.8625Q507.14539473225204 102.12142857142857 507.66325187510915 102.44285714285714L507.91325187510915 105.1392857142857H507.7525375893949Q507.4668233036806 104.03214285714286 506.8418233036806 103.3267857142857Q506.2168233036806 102.62142857142857 505.3150375893949 102.2642857142857Q504.41325187510915 101.90714285714286 503.3061090179663 101.90714285714286Q501.82396616082343 101.90714285714286 500.72575187510915 102.6392857142857Q499.6275375893949 103.37142857142857 499.0293233036806 104.7017857142857Q498.4311090179663 106.03214285714286 498.4311090179663 107.83571428571429Q498.4311090179663 109.58571428571429 499.02039473225204 110.90714285714286Q499.60968044653777 112.22857142857143 500.67218044653777 112.9517857142857Q501.73468044653777 113.675 503.1811090179663 113.69285714285714Q503.91325187510915 113.69285714285714 504.60075187510915 113.49642857142857Q505.28825187510915 113.3 505.8775375893949 112.94285714285715Q506.4668233036806 112.58571428571429 506.85968044653777 112.06785714285714L506.8775375893949 109.05Q506.8775375893949 108.24642857142857 505.9668233036806 108.24642857142857H505.6811090179663V108.06785714285714H509.6811090179663V108.24642857142857H509.41325187510915Q508.8775375893949 108.24642857142857 508.66325187510915 108.5142857142857Q508.5025375893949 108.71071428571429 508.52039473225204 109.05ZM516.4568576661435 101.28214285714286 525.9568576661435 111.03214285714286V102.81785714285714Q525.9390005232864 102.35357142857143 525.6265005232864 102.04107142857143Q525.3140005232864 101.72857142857143 524.8497148090007 101.72857142857143H524.5104290947149V101.55H528.7604290947149V101.72857142857143H528.4390005232864Q527.9925719518578 101.72857142857143 527.6711433804293 102.04107142857143Q527.3497148090007 102.35357142857143 527.3318576661435 102.81785714285714V112.0142857142857Q527.3318576661435 112.62142857142857 527.3765005232864 113.14821428571429Q527.4211433804293 113.675 527.4747148090007 113.97857142857143L527.5104290947149 114.3H527.3497148090007L517.8318576661435 104.55L517.8497148090007 112.78214285714286Q517.8497148090007 113.22857142857143 518.1711433804293 113.55Q518.4925719518578 113.87142857142857 518.9390005232864 113.87142857142857H519.278286237572V114.05H515.028286237572V113.87142857142857H515.3675719518578Q515.8140005232864 113.87142857142857 516.1354290947149 113.55Q516.4568576661435 113.22857142857143 516.4568576661435 112.78214285714286V103.5142857142857Q516.4568576661435 102.56785714285714 516.3675719518578 101.925L516.278286237572 101.28214285714286ZM543.6611777428922 110.90714285714286 542.6968920286065 114.05H534.6790348857493V113.87142857142857H534.9111777428922Q535.375463457178 113.87142857142857 535.705820600035 113.54107142857143Q536.0361777428922 113.21071428571429 536.0540348857493 112.74642857142857V102.85357142857143Q536.0540348857493 102.3892857142857 535.7147491714636 102.05892857142857Q535.375463457178 101.72857142857143 534.9111777428922 101.72857142857143H534.6968920286065L534.6790348857493 101.55H540.393320600035Q540.7861777428922 101.55 541.2236777428922 101.49642857142857Q541.6611777428922 101.44285714285714 542.0361777428922 101.37142857142857Q542.4111777428922 101.3 542.5718920286065 101.22857142857143V103.7642857142857H542.393320600035V103.47857142857143Q542.393320600035 102.925 542.0361777428922 102.55Q541.7326063143207 102.24642857142857 541.2861777428922 102.175H537.7147491714636V107.58571428571429H540.518320600035Q540.9826063143207 107.56785714285714 541.2861777428922 107.24642857142857Q541.5897491714636 106.925 541.5897491714636 106.47857142857143V106.2642857142857H541.768320600035V109.5142857142857H541.5897491714636V109.28214285714286Q541.5897491714636 108.83571428571429 541.2861777428922 108.5142857142857Q540.9826063143207 108.19285714285714 540.518320600035 108.19285714285714H537.7147491714636V113.425H540.1968920286065Q541.125463457178 113.425 541.750463457178 113.1125Q542.375463457178 112.8 542.7861777428923 112.22857142857143Q543.1968920286065 111.65714285714286 543.4826063143207 110.90714285714286ZM567.2305321821037 110.90714285714286 566.2662464678181 114.05H558.2483893249608V113.87142857142857H558.4805321821037Q558.9448178963895 113.87142857142857 559.2751750392466 113.54107142857143Q559.6055321821037 113.21071428571429 559.6233893249608 112.74642857142857V102.85357142857143Q559.6055321821037 102.3892857142857 559.2751750392466 102.05892857142857Q558.9448178963895 101.72857142857143 558.4805321821037 101.72857142857143H558.2483893249608V101.55H562.6591036106752V101.72857142857143H562.4269607535323Q561.9626750392466 101.72857142857143 561.6323178963894 102.05892857142857Q561.3019607535323 102.3892857142857 561.2841036106752 102.85357142857143V113.425H563.7662464678181Q564.6948178963895 113.425 565.3198178963895 113.1125Q565.9448178963895 112.8 566.3555321821038 112.22857142857143Q566.7662464678181 111.65714285714286 567.0519607535323 110.90714285714286ZM578.256280830281 101.2642857142857 583.3098522588524 112.96071428571429Q583.5598522588524 113.40714285714286 583.9348522588524 113.60357142857143Q584.3634236874238 113.87142857142857 584.7741379731381 113.87142857142857H584.9169951159953V114.05H580.3455665445666V113.87142857142857H580.506280830281Q580.8634236874238 113.87142857142857 581.131280830281 113.5767857142857Q581.3991379731381 113.28214285714286 581.1848522588524 112.74642857142857L580.131280830281 109.99642857142857H575.5241379731381L574.3634236874238 112.90714285714286Q574.3098522588524 113.15714285714286 574.381280830281 113.35357142857143Q574.4705665445666 113.60357142857143 574.6759236874238 113.7375Q574.881280830281 113.87142857142857 575.0955665445666 113.87142857142857H575.256280830281V114.05H571.5955665445666V113.87142857142857H571.756280830281Q572.1669951159953 113.87142857142857 572.6134236874238 113.60357142857143Q572.9705665445666 113.40714285714286 573.2205665445666 112.96071428571429L577.3634236874238 103.2642857142857Q577.381280830281 103.22857142857143 577.4973522588524 102.9875Q577.6134236874238 102.74642857142857 577.7473522588524 102.40714285714284Q577.881280830281 102.06785714285714 577.9884236874238 101.74642857142857Q578.0955665445666 101.425 578.0955665445666 101.2642857142857ZM575.7741379731381 109.3892857142857H579.8991379731381L577.881280830281 104.10357142857143ZM591.2284580498867 112.74642857142857V102.85357142857143Q591.2106009070295 102.3892857142857 590.8802437641724 102.05892857142857Q590.5498866213153 101.72857142857143 590.0856009070295 101.72857142857143H589.8534580498867V101.55H595.1034580498867Q595.9070294784582 101.55 596.6034580498867 101.7642857142857Q597.2998866213153 101.97857142857143 597.7909580498867 102.39821428571429Q598.2820294784582 102.81785714285714 598.5677437641725 103.44285714285714Q598.8534580498867 104.06785714285714 598.8534580498867 104.90714285714286Q598.8534580498867 105.72857142857143 598.4784580498867 106.50535714285715Q598.1034580498867 107.28214285714286 597.4338151927439 107.78214285714286Q596.764172335601 108.28214285714286 595.8534580498867 108.31785714285714Q596.2463151927439 108.46071428571429 596.639172335601 108.87142857142857Q597.0320294784582 109.28214285714286 597.3177437641724 109.675Q597.3177437641724 109.69285714285714 597.5409580498867 110.0142857142857Q597.764172335601 110.33571428571429 598.1034580498867 110.80892857142857Q598.4427437641724 111.28214285714286 598.7909580498867 111.74642857142857Q599.139172335601 112.21071428571429 599.4070294784582 112.5142857142857Q599.764172335601 112.94285714285714 600.1123866213152 113.2375Q600.4606009070295 113.53214285714286 600.8623866213152 113.7017857142857Q601.264172335601 113.87142857142857 601.764172335601 113.87142857142857V114.05H600.514172335601Q599.6570294784582 114.05 598.9963151927439 113.8267857142857Q598.3356009070295 113.60357142857143 597.8534580498867 113.21964285714286Q597.3713151927439 112.83571428571429 597.0320294784582 112.3892857142857Q596.9606009070295 112.2642857142857 596.7373866213152 111.925Q596.514172335601 111.58571428571429 596.2373866213152 111.14821428571429Q595.9606009070295 110.71071428571429 595.6927437641724 110.28214285714286Q595.4248866213153 109.85357142857143 595.2284580498867 109.54107142857143Q595.0320294784582 109.22857142857143 594.9784580498867 109.1392857142857Q594.6748866213153 108.65714285714286 594.2998866213153 108.30892857142857Q593.9248866213153 107.96071428571429 593.4784580498867 107.94285714285714V107.7642857142857Q593.4963151927439 107.7642857142857 593.7373866213153 107.77321428571429Q593.9784580498867 107.78214285714286 594.2998866213153 107.7642857142857Q594.764172335601 107.74642857142857 595.2909580498867 107.60357142857143Q595.8177437641724 107.46071428571429 596.2552437641724 107.05Q596.6927437641724 106.6392857142857 596.9070294784582 105.83571428571429Q596.9606009070295 105.65714285714286 596.9873866213152 105.3892857142857Q597.014172335601 105.12142857142857 596.9963151927439 104.83571428571429Q596.9784580498867 103.60357142857143 596.3802437641725 102.91607142857143Q595.7820294784582 102.22857142857143 594.8177437641724 102.19285714285714Q594.4070294784582 102.15714285714286 593.9606009070296 102.16607142857143Q593.514172335601 102.175 593.1927437641724 102.175H592.889172335601V112.74642857142857Q592.889172335601 113.21071428571429 593.2284580498867 113.54107142857143Q593.5677437641724 113.87142857142857 594.0320294784582 113.87142857142857H594.2463151927439V114.05H589.8534580498867V113.87142857142857H590.0856009070295Q590.5498866213153 113.87142857142857 590.8802437641724 113.54107142857143Q591.2106009070295 113.21071428571429 591.2284580498867 112.74642857142857ZM607.9684924123496 112.74642857142857V102.85357142857143Q607.9684924123496 102.3892857142857 607.6292066980639 102.05892857142857Q607.2899209837782 101.72857142857143 606.8256352694924 101.72857142857143H606.6113495552067L606.5934924123496 101.55H611.6827781266353Q612.9684924123496 101.55 613.834563840921 101.96964285714284Q614.7006352694924 102.3892857142857 615.1559924123496 103.16607142857143Q615.6113495552067 103.94285714285714 615.6113495552067 104.99642857142857Q615.6292066980639 105.83571428571429 615.2988495552067 106.52321428571429Q614.9684924123496 107.21071428571429 614.4149209837782 107.675Q613.8613495552067 108.1392857142857 613.1559924123496 108.3625Q612.4506352694924 108.58571428571429 611.7006352694924 108.5142857142857Q610.9506352694924 108.44285714285714 610.2363495552067 108.03214285714286V107.85357142857143L610.5220638409211 107.87142857142857Q610.7899209837782 107.90714285714286 611.2274209837782 107.87142857142857Q611.6649209837782 107.83571428571429 612.1381352694925 107.65714285714286Q612.6113495552067 107.47857142857143 613.0309924123496 107.05Q613.4506352694924 106.62142857142857 613.6649209837782 105.8892857142857Q613.7184924123496 105.675 613.7542066980639 105.38035714285715Q613.7899209837782 105.08571428571429 613.7720638409211 104.81785714285714Q613.7542066980639 103.62142857142857 613.1381352694925 102.8892857142857Q612.5220638409211 102.15714285714286 611.3970638409211 102.15714285714286H609.6292066980639V112.74642857142857Q609.6470638409211 113.21071428571429 609.9774209837782 113.54107142857143Q610.3077781266353 113.87142857142857 610.7720638409211 113.87142857142857H611.0042066980639V114.05H606.5934924123496V113.87142857142857H606.8256352694924Q607.2899209837782 113.87142857142857 607.6202781266353 113.54107142857143Q607.9506352694924 113.21071428571429 607.9684924123496 112.74642857142857Z M175.67 104.05 L179.42 107.80 L175.67 111.55 L171.92 107.80Z M626.24 104.05 L629.99 107.80 L626.24 111.55 L622.49 107.80Z"/></g></svg>
